<svg xmlns="http://www.w3.org/2000/svg" viewBox="0 0 100 100">
    <path fill="#fff" d="M74.03, 7.15 A10 10 0 0 1 86.47, 17.17 L84.5, 78.61 A10 10 0 0 1 74.91, 88.28 L27.27, 90.24 A10 10 0 0 1 17, 81.95 L8.58, 33.23 A10 10 0 0 1 15.98, 21.83"/>
    <path fill="#6b88ef" d="M81.95, 45.98 A4.5 4.5 0 0 1 81.95, 54.02 L68.08, 60.96 A4.5 4.5 0 0 0 65.65, 64.3 L63.35, 79.22 A4.5 4.5 0 0 1 55.72, 81.72 L44.7, 70.7 A4.5 4.5 0 0 0 40.64, 69.47 L27.02, 72.2 A4.5 4.5 0 0 1 22.11, 65.77 L28.99, 52.01 A4.5 4.5 0 0 0 28.99, 47.99 L22.08, 34.15 A4.5 4.5 0 0 1 26.95, 27.72 L41.58, 30.53 A4.5 4.5 0 0 0 45.7, 29.21 L55.68, 18.67 A4.5 4.5 0 0 1 63.4, 21.08 L65.65, 35.7 A4.5 4.5 0 0 0 68.08, 39.04"/>
</svg>